<svg width="150" height="149" viewBox="0 0 150 149" fill="none" xmlns="http://www.w3.org/2000/svg">
<path d="M74.5891 0L80.0468 49.3236L105.094 6.48409L90.0185 53.7633L130.325 24.8152L97.3223 61.875L145.918 51.8237L100.695 72.2561L149.178 82.8396L99.5543 83.1117L139.541 112.5L94.0967 92.5647L118.673 135.676L85.2659 98.9806L90.1825 148.361L74.5891 101.25L58.9957 148.361L63.9123 98.9806L30.5052 135.676L55.0816 92.5647L9.63721 112.5L49.6239 83.1117L-3.05176e-05 82.8396L48.4829 72.2561L3.25987 51.8237L51.8559 61.875L18.8532 24.8152L59.1597 53.7633L44.0839 6.48409L69.1314 49.3236L74.5891 0Z" fill="#FCD043"/>
</svg>
