<svg width="57" height="57" viewBox="0 0 57 57" fill="none" xmlns="http://www.w3.org/2000/svg">
<path d="M38.9963 14.4309C39.8566 13.3176 41.4989 13.2128 42.4938 14.2076C43.4223 15.1362 43.3245 16.669 42.2854 17.472L28.2891 28.2873L38.9963 14.4309Z" fill="#FCD043"/>
<path d="M42.1443 38.9934C43.2576 39.8536 43.3624 41.496 42.3676 42.4908C41.439 43.4194 39.9061 43.3215 39.1032 42.2825L28.2879 28.2862L42.1443 38.9934Z" fill="#FCD043"/>
<path d="M45.6517 26.1391C47.0473 25.9601 48.2827 27.0473 48.2827 28.4543C48.2827 29.7674 47.1296 30.7821 45.8271 30.6151L28.2827 28.3659L45.6517 26.1391Z" fill="#FCD043"/>
<path d="M30.5123 45.7416C30.6912 47.1371 29.604 48.3726 28.1971 48.3726C26.8839 48.3726 25.8692 47.2195 26.0362 45.917L28.2855 28.3726L30.5123 45.7416Z" fill="#FCD043"/>
<path d="M17.576 42.1413C16.7157 43.2546 15.0734 43.3595 14.0785 42.3646C13.1499 41.4361 13.2478 39.9032 14.2869 39.1003L28.2831 28.285L17.576 42.1413Z" fill="#FCD043"/>
<path d="M14.428 17.5789C13.3147 16.7186 13.2099 15.0763 14.2047 14.0814C15.1333 13.1529 16.6661 13.2507 17.469 14.2898L28.2843 28.2861L14.428 17.5789Z" fill="#FCD043"/>
<path d="M10.9137 30.5951C9.51817 30.774 8.28272 29.6868 8.28272 28.2799C8.28272 26.9667 9.43581 25.952 10.7383 26.119L28.2827 28.3683L10.9137 30.5951Z" fill="#FCD043"/>
<path d="M26.058 10.9989C25.8791 9.60338 26.9663 8.36792 28.3732 8.36792C29.6864 8.36792 30.7011 9.52102 30.5341 10.8235L28.2848 28.3679L26.058 10.9989Z" fill="#FCD043"/>
</svg>
