<svg width="150" height="108" viewBox="0 0 150 108" fill="none" xmlns="http://www.w3.org/2000/svg">
<g opacity="0.64">
<path d="M7.53566 107.89L5.85377 103.965C5.10626 102.159 5.66689 100.788 7.28649 100.041C8.96838 99.2933 10.4011 99.8539 11.1486 101.66L12.3322 104.401L16.0074 102.782L16.5058 103.965L7.53566 107.89ZM11.3355 104.837L10.3388 102.47C9.77819 101.1 8.90609 100.788 7.84712 101.224C6.78815 101.66 6.47669 102.533 7.03732 103.903L8.034 106.27L11.3355 104.837Z" fill="#FFFCF6"/>
<path d="M2.92781 95.8052L1.86884 91.3201C1.4328 89.5136 2.18031 88.2055 3.67532 87.8318C4.79658 87.5826 5.91785 87.8318 6.47848 88.8907C6.41619 87.7072 7.16369 87.3334 8.09808 87.022C9.03246 86.7105 10.0914 86.5236 10.5898 85.8384L10.9012 87.2711C10.5898 87.7072 9.5308 87.7695 8.65871 88.1432C7.78662 88.517 7.03911 88.8907 7.28828 90.1366L8.03579 93.2512L12.0848 92.3168L12.3963 93.5626L2.92781 95.8052ZM6.35389 90.8841C6.10472 89.7005 5.54409 88.7661 4.17366 89.0776C3.23928 89.3268 2.67864 89.9497 2.92781 91.1332L3.67532 94.3102L6.97682 93.5004L6.35389 90.8841Z" fill="#FFFCF6"/>
<path d="M0.373754 82.5986L-2.94072e-07 75.8711L1.12126 75.8088L1.43272 81.2282L4.54734 81.0413L4.23588 75.9956L5.35714 75.9334L5.60631 81.0413L8.9701 80.8544L8.65864 75.3727L9.7799 75.3104L10.1537 82.1003L0.373754 82.5986Z" fill="#FFFCF6"/>
<path d="M0.0623779 70.0156L0.311547 68.2714L8.8456 66.278L1.12135 62.1668L1.37052 60.4226L11.0881 61.6684L10.9012 62.9143L2.80324 61.8553L10.4652 65.9666L10.3406 67.0879L1.86886 69.0189L9.96686 70.0779L9.77999 71.3237L0.0623779 70.0156Z" fill="#FFFCF6"/>
<path d="M2.92969 54.4439L3.30344 53.1981L12.7096 56.0012L12.3358 57.2471L2.92969 54.4439Z" fill="#FFFCF6"/>
<path d="M14.142 42.9817C16.3845 43.9784 17.0074 45.8471 15.9485 48.0274C14.8895 50.3322 13.2076 51.2043 10.8405 50.083L5.17187 47.4667L5.73251 46.2832L11.4011 48.8995C12.9584 49.647 14.2666 49.0863 14.9518 47.529C15.637 46.034 15.1387 44.7882 13.5813 44.103L7.91274 41.4867L8.47337 40.3031L14.142 42.9817Z" fill="#FFFCF6"/>
<path d="M11.6487 34.8204L12.7077 33.3876L21.1794 35.7548L16.3829 28.4043L17.4419 26.9715L25.353 32.7647L24.6055 33.7614L18.0648 28.9649L22.799 36.2531L22.1138 37.1252L13.7666 34.7581L20.3073 39.5546L19.5598 40.5513L11.6487 34.8204Z" fill="#FFFCF6"/>
<path d="M27.1594 17.3167L30.8347 14.5758C32.3297 13.4546 33.8247 13.5792 34.7591 14.825C35.4443 15.7594 35.6312 16.8806 34.8837 17.815C35.9426 17.3167 36.6279 17.815 37.2508 18.5625C37.8737 19.3101 38.4966 20.1821 39.3064 20.369L38.1229 21.2411C37.5622 21.1165 37.1262 20.1821 36.3787 19.4969C35.6935 18.8117 35.0083 18.3134 34.0116 19.0609L31.4576 20.9919L33.9493 24.3557L32.8903 25.1655L27.1594 17.3167ZM33.0772 18.5003C34.0739 17.7527 34.6968 16.8807 33.8247 15.7594C33.2641 15.0119 32.392 14.7627 31.4576 15.4479L28.8413 17.379L30.897 20.1199L33.0772 18.5003Z" fill="#FFFCF6"/>
<path d="M41.9227 7.59877C44.7259 6.22833 47.2175 7.72335 48.4011 10.1528C49.5847 12.5199 49.2732 15.4476 46.47 16.818C43.6669 18.1885 41.1752 16.6935 39.9916 14.2641C38.7458 11.8969 39.1195 8.9692 41.9227 7.59877ZM45.9094 15.8214C48.0273 14.7624 48.0273 12.4576 47.1553 10.7134C46.2832 8.9692 44.4767 7.53648 42.3587 8.59545C40.2408 9.65442 40.2408 11.9592 41.1129 13.7034C41.985 15.4476 43.7915 16.8803 45.9094 15.8214Z" fill="#FFFCF6"/>
<path d="M55.6272 2.49076C58.6172 1.68096 60.7974 3.67432 61.4827 6.2283C62.1679 8.78229 61.2958 11.5854 58.2435 12.3952C55.1911 13.205 53.0732 11.2117 52.388 8.6577C51.7651 6.04142 52.6371 3.23827 55.6272 2.49076ZM57.9943 11.3363C60.2991 10.7134 60.7352 8.47082 60.2368 6.60205C59.7385 4.67099 58.2435 2.9891 55.9386 3.54973C53.6338 4.17266 53.1978 6.41518 53.6961 8.28396C54.1945 10.215 55.6895 11.8969 57.9943 11.3363Z" fill="#FFFCF6"/>
<path d="M66.0937 0.560711L67.9002 0.436129L71.3886 8.47184L74.0672 0.124666L75.8737 8.34958e-05L76.372 9.77998L75.1261 9.84228L74.6901 1.68197L72.0738 9.96686L70.9526 10.0291L67.4642 2.05573L67.9002 10.216L66.6544 10.2783L66.0937 0.560711Z" fill="#FFFCF6"/>
<path d="M87.3976 4.04867C87.4599 2.61595 86.5878 1.93074 85.2797 1.74386C84.2207 1.61927 83.0372 1.80615 82.8503 3.11429C82.6634 4.29784 84.2207 4.73389 85.7157 5.29452C87.2108 5.85515 88.7058 6.60266 88.3943 8.53372C88.0828 10.5894 85.9649 11.15 84.2207 10.9008C82.0405 10.5894 80.3586 9.28123 80.6701 6.91412L81.9159 7.101C81.6667 8.7206 82.9749 9.65499 84.4076 9.84187C85.5911 10.0287 86.8993 9.84186 87.0862 8.40914C87.273 7.101 85.778 6.60266 84.283 6.04203C82.788 5.4814 81.293 4.79618 81.5421 3.05199C81.7913 1.05864 83.7224 0.435711 85.4666 0.68488C87.4599 0.93405 88.8303 2.11761 88.5812 4.23555L87.3976 4.04867Z" fill="#FFFCF6"/>
<path d="M92.3814 10.7767L93.8141 11.2128L93.378 12.6455L91.9453 12.2095L92.3814 10.7767Z" fill="#FFFCF6"/>
<path d="M108.515 8.03455L111.63 9.77873C112.377 10.2148 113.374 10.7754 113.685 11.336C114.059 11.959 114.184 12.8311 113.685 13.7032C113.187 14.6375 112.315 15.0113 111.318 14.8867C112.253 15.6965 112.377 16.8178 111.754 17.8767C111.069 19.1226 109.449 19.8078 107.768 18.8734L103.656 16.5686L108.515 8.03455ZM105.4 16.1949L108.266 17.8144C109.263 18.3751 110.197 18.1259 110.758 17.1915C111.381 16.0703 110.633 15.2605 109.699 14.6998L107.082 13.2671L105.4 16.1949ZM107.581 12.3327L109.823 13.6409C111.131 14.3884 111.879 14.2015 112.377 13.3294C113.062 12.1458 112.315 11.5229 111.318 10.9623L109.076 9.65415L107.581 12.3327Z" fill="#FFFCF6"/>
<path d="M122.031 16.8181L123.152 17.7525L119.851 27.7192L118.729 26.7849L119.788 23.8571L116.611 21.2408L113.871 22.7981L112.812 21.9261L122.031 16.8181ZM117.608 20.6179L120.162 22.7359L121.782 18.1885L117.608 20.6179Z" fill="#FFFCF6"/>
<path d="M129.63 23.7328L130.502 24.7918L127.762 33.8242L133.804 28.7162L134.614 29.6506L127.139 36.0044L126.204 34.9454L128.883 25.9753L122.903 31.021L122.093 30.0866L129.63 23.7328Z" fill="#FFFCF6"/>
<path d="M138.226 34.8217L138.849 35.9429L134.613 38.3723L141.34 40.2411L142.15 41.6738L136.668 40.0542L133.741 46.6572L132.931 45.2245L135.485 39.6805L133.367 38.9953L130.377 40.6772L129.754 39.5559L138.226 34.8217Z" fill="#FFFCF6"/>
<path d="M146.761 53.4457L147.072 54.6915L142.961 55.6882L144.207 60.6716L148.318 59.6749L148.629 60.9208L139.099 63.2256L138.787 61.9797L143.148 60.9208L141.902 55.9374L137.541 56.9964L137.23 55.7505L146.761 53.4457Z" fill="#FFFCF6"/>
<path d="M150 71.3864C150.125 74.501 147.757 76.1829 145.079 76.3075C142.4 76.4321 139.909 74.9993 139.722 71.8847C139.535 68.7701 141.964 67.0882 144.643 66.9636C147.321 66.839 149.813 68.2718 150 71.3864ZM140.843 71.8224C140.968 74.1895 143.085 75.1239 145.017 74.9993C146.948 74.8748 149.003 73.8158 148.879 71.4487C148.754 69.0816 146.636 68.1472 144.705 68.2718C142.774 68.3963 140.718 69.4553 140.843 71.8224Z" fill="#FFFCF6"/>
<path d="M148.256 83.7827L148.692 80.5435L149.751 80.668L148.754 88.4546L147.695 88.33L148.131 85.0908L139.535 83.9695L139.722 82.6614L148.256 83.7827Z" fill="#FFFCF6"/>
<path d="M147.634 93.3761L145.703 99.8545L144.644 99.543L146.201 94.3105L143.211 93.4384L141.779 98.2972L140.72 97.9857L142.152 93.1269L138.913 92.1925L137.356 97.4874L136.297 97.1759L138.228 90.6352L147.634 93.3761Z" fill="#FFFCF6"/>
<path d="M143.645 105.024L143.084 106.207L135.235 102.47L132.993 107.142L131.996 106.643L134.799 100.788L143.645 105.024Z" fill="#FFFCF6"/>
</g>
<path d="M73.098 52.6925C72.9191 51.297 74.0063 50.0615 75.4133 50.0615C76.7264 50.0615 77.7411 51.2146 77.5741 52.5171L75.3248 70.0615L73.098 52.6925Z" fill="#FCD043"/>
<path d="M92.6923 67.8344C94.0878 67.6555 95.3232 68.7426 95.3232 70.1496C95.3232 71.4627 94.1701 72.4774 92.8677 72.3105L75.3232 70.0612L92.6923 67.8344Z" fill="#FCD043"/>
<path d="M86.0842 56.2639C86.9445 55.1506 88.5868 55.0458 89.5817 56.0407C90.5102 56.9692 90.4123 58.5021 89.3733 59.305L75.377 70.1203L86.0842 56.2639Z" fill="#FCD043"/>
<path d="M89.24 80.8303C90.3533 81.6905 90.4581 83.3329 89.4633 84.3278C88.5347 85.2563 87.0019 85.1584 86.1989 84.1194L75.3836 70.1231L89.24 80.8303Z" fill="#FCD043"/>
<path d="M77.5484 87.4305C77.7274 88.8261 76.6402 90.0615 75.2332 90.0615C73.9201 90.0615 72.9054 88.9084 73.0724 87.6059L75.3216 70.0615L77.5484 87.4305Z" fill="#FCD043"/>
<path d="M57.9542 72.2887C56.5587 72.4676 55.3232 71.3804 55.3232 69.9735C55.3232 68.6603 56.4763 67.6456 57.7788 67.8126L75.3232 70.0619L57.9542 72.2887Z" fill="#FCD043"/>
<path d="M64.6717 83.9783C63.8114 85.0915 62.1691 85.1964 61.1742 84.2015C60.2457 83.273 60.3435 81.7401 61.3826 80.9372L75.3788 70.1219L64.6717 83.9783Z" fill="#FCD043"/>
<path d="M61.5237 59.4129C60.4104 58.5526 60.3056 56.9103 61.3004 55.9154C62.229 54.9869 63.7618 55.0847 64.5647 56.1238L75.38 70.1201L61.5237 59.4129Z" fill="#FCD043"/>
</svg>
